<svg xmlns="http://www.w3.org/2000/svg" xmlns:xlink="http://www.w3.org/1999/xlink" width="361" height="1081" viewBox="0 0 361 1081">
  <defs>
    <clipPath id="clip-path">
      <rect id="Rectangle_319" data-name="Rectangle 319" width="1081" height="361" transform="translate(0 0.392)" fill="#fff"/>
    </clipPath>
    <clipPath id="clip-path-2">
      <rect id="Rectangle_318" data-name="Rectangle 318" width="1081" height="434" transform="translate(0 0.392)" fill="#fff"/>
    </clipPath>
  </defs>
  <g id="Mask_Group_3" data-name="Mask Group 3" transform="translate(361.392 0) rotate(90)" clip-path="url(#clip-path)">
    <g id="Mask_Group_2" data-name="Mask Group 2" transform="translate(0 -22)" clip-path="url(#clip-path-2)">
      <g id="Group_5249" data-name="Group 5249" transform="translate(-3.849 26.591)">
        <path id="Path_12442" data-name="Path 12442" d="M6.881,643.761,0,209.39c256.891,34.337,470.227,16.515,637.86-20.14C932.374,124.953,1085.65,0,1085.65,0h0l-28.611,660.759Z" transform="translate(4.723 0.115)" fill="#1388e6"/>
        <path id="Path_12443" data-name="Path 12443" d="M0,660.989V225.561c288.225,35.246,520.082,6.584,694.455-40.538C948.671,116.447,1080.9,5.929,1087.94.069a.222.222,0,0,1,.322,0v660.92Z" fill="#fff"/>
      </g>
    </g>
  </g>
</svg>
