<svg xmlns="http://www.w3.org/2000/svg" width="86.555" height="42" viewBox="0 0 86.555 42"><defs><style>.a{fill:#186bb3;}</style></defs><path class="a" d="M93.4,0h13.528c-.124,5.876.488,11.759-.052,17.629-.7-5.174-1.378-10.355-2.243-15.5q-4.6-.02-9.2-.007.059,17.152.078,34.316-6.738.01-13.476-.007c.078-6.423-.286-12.839-.156-19.261.871,5.707,1.476,11.447,2.165,17.181q4.69.029,9.38,0C93.378,22.9,93.43,11.447,93.4,0Z" transform="translate(-28.645)"/><path class="a" d="M105.43,6.47l2.867.02-.02,2.711c-.949.007-1.892.013-2.834.013C105.443,8.3,105.437,7.387,105.43,6.47Z" transform="translate(-36.895 -2.264)"/><path class="a" d="M22.288,8.33c.416-.007,1.242-.02,1.651-.02-.013,2.548-.039,5.1.02,7.651,4.316.111,8.633.124,12.949,0,.013-.982.026-1.957.033-2.938l1.7.039c-.078.956-.156,1.911-.221,2.867,1.391-1.443,2.334-3.588,4.433-4.115,3-.39,4.258,4.394,1.515,5.564a17.01,17.01,0,0,1-6.585-.046c-3.92.572-7.892.208-11.831.312-1.359.059-3.341-.091-3.549-1.807-.228-2.5-.052-5.005-.117-7.508m18.026,7.749c1.567-.091,4.745.5,3.887-2.113C42.686,12.3,41.276,15.032,40.314,16.078Z" transform="translate(-7.798 -2.908)"/><path class="a" d="M105.43,12.46l2.873.02c-.013.891-.02,1.788-.026,2.678-.949.013-1.892.013-2.834.02C105.437,14.274,105.437,13.364,105.43,12.46Z" transform="translate(-36.895 -4.36)"/><path class="a" d="M10.8,14.521c.4-.091,1.183-.28,1.58-.371.163,1.736,1.105,4.31-.975,5.259-3.757.618-7.612.124-11.408.26v-1.58c3.738-.026,7.476.026,11.213-.065Q11.018,16.269,10.8,14.521Z" transform="translate(0 -4.952)"/><path class="a" d="M105.456,18.2c.936,0,1.866.006,2.8.013.013.923.026,1.853.039,2.776q-1.433.02-2.867.02C105.437,20.072,105.45,19.136,105.456,18.2Z" transform="translate(-36.895 -6.369)"/><path class="a" d="M14.72,24.983c.377-.3,1.118-.9,1.489-1.2.468.481.936.962,1.4,1.443-.54.442-1.079.884-1.632,1.313C15.559,26.023,15.143,25.5,14.72,24.983Z" transform="translate(-5.151 -8.322)"/><path class="a" d="M87.59,29.15c.923.007,1.853.007,2.782.013.013.9.033,1.794.052,2.691l-2.854.02C87.576,30.964,87.583,30.06,87.59,29.15Z" transform="translate(-30.645 -10.201)"/><path class="a" d="M13.97,35.288c.462-.462.923-.93,1.385-1.4.494.455.988.91,1.482,1.359-.351.358-1.047,1.073-1.4,1.43Z" transform="translate(-4.889 -11.86)"/><path class="a" d="M33.05,35.046,34.4,33.72c.377.3,1.118.9,1.489,1.2-.449.507-.9,1.014-1.352,1.515C34.038,35.976,33.544,35.514,33.05,35.046Z" transform="translate(-11.566 -11.8)"/><path class="a" d="M87.586,35.23c.93.007,1.866.013,2.808.026,0,.93.007,1.859.013,2.789-.949,0-1.9.007-2.847.007C87.566,37.109,87.573,36.166,87.586,35.23Z" transform="translate(-30.641 -12.329)"/><path class="a" d="M1.126,39.057A40.211,40.211,0,0,1,4.955,36.19,50.388,50.388,0,0,0,6.619,41.9c1.157.891,2.763.39,4.115.54-.072-1.19-.2-2.373-.325-3.556l1.508-.468c.156,1.664,1.125,3.8-.455,5.077a6.282,6.282,0,0,1-6.338-.657c-1.125.2-2.379.956-3.465.208a2.566,2.566,0,0,1-.533-3.985M1.8,40.682a1.257,1.257,0,0,0,1.97.93c.91-.683.41-1.918.5-2.86A8.635,8.635,0,0,0,1.8,40.682Z" transform="translate(-0.145 -12.665)"/><path class="a" d="M21.413,43.333c-.871-2,1.021-4.765,3.283-4.011,1.885.494,1.768,2.659,1.937,4.206a14.279,14.279,0,0,0,7.352-1.456c-1.892-1.235-3.965-.871-6.026-.488.663-.839,1.164-1.983,2.269-2.308a21.035,21.035,0,0,1,6.26,2.269c-.449.65-.9,1.307-1.359,1.957,3.666-.033,7.333-.02,11-.02,0,.52,0,1.04-.007,1.56-3.166-.02-6.338.052-9.51,0a6.064,6.064,0,0,1-3.081-.988,17.085,17.085,0,0,1-6.787,1.027c-.358,2.685-2.945,3.627-5.343,3.478.176-2.178,2.984-1.534,3.939-3.2-1.352-.436-3.491-.273-3.926-2.022m1.45-2.626c.02.9.039,1.8.046,2.7.553.013,1.651.033,2.2.046C25.119,41.889,24.56,40.667,22.863,40.706Z" transform="translate(-7.418 -13.716)"/><path class="a" d="M84.553,61.2c8.685-.085,17.376-.046,26.061-.312-6.254,1.294-12.644,1.716-18.982,2.418-7.632-.4-15.244-1.268-22.882-1.755C74,60.9,79.287,61.274,84.553,61.2Z" transform="translate(-24.059 -21.308)"/></svg>