<svg xmlns="http://www.w3.org/2000/svg" width="92.737" height="45" viewBox="0 0 92.737 45"><defs><style>.a{fill:#fff;}</style></defs><path class="a" d="M94.229,0h14.494c-.132,6.3.522,12.6-.056,18.889-.745-5.544-1.477-11.1-2.4-16.611q-4.931-.021-9.855-.007.063,18.377.084,36.768-7.219.01-14.438-.007c.084-6.881-.306-13.756-.167-20.637.933,6.115,1.581,12.265,2.319,18.408q5.025.031,10.05,0C94.2,24.537,94.256,12.265,94.229,0Z" transform="translate(-24.845)"/><path class="a" d="M105.43,6.47l3.072.021-.021,2.9c-1.017.007-2.027.014-3.037.014C105.444,8.434,105.437,7.452,105.43,6.47Z" transform="translate(-31.999 -1.964)"/><path class="a" d="M22.288,8.331c.446-.007,1.33-.021,1.769-.021-.014,2.73-.042,5.467.021,8.2,4.625.118,9.249.132,13.874,0,.014-1.052.028-2.1.035-3.148l1.825.042c-.084,1.024-.167,2.048-.237,3.072,1.49-1.546,2.5-3.845,4.75-4.409,3.211-.418,4.562,4.708,1.623,5.962a18.225,18.225,0,0,1-7.055-.049c-4.2.613-8.455.223-12.676.334-1.456.063-3.58-.1-3.8-1.936-.244-2.675-.056-5.363-.125-8.044m19.314,8.3c1.679-.1,5.084.536,4.165-2.264C44.144,12.586,42.632,15.512,41.6,16.633Z" transform="translate(-6.763 -2.522)"/><path class="a" d="M105.43,12.46l3.078.021c-.014.954-.021,1.915-.028,2.87-1.017.014-2.027.014-3.037.021C105.437,14.4,105.437,13.428,105.43,12.46Z" transform="translate(-31.999 -3.782)"/><path class="a" d="M11.576,14.547c.425-.1,1.268-.3,1.692-.4.174,1.86,1.184,4.618-1.045,5.635-4.026.662-8.156.132-12.223.279V18.371c4-.028,8.01.028,12.014-.07Q11.805,16.421,11.576,14.547Z" transform="translate(0 -4.295)"/><path class="a" d="M105.458,18.2c1,0,2,.007,3,.014.014.989.028,1.985.042,2.974q-1.536.021-3.072.021C105.437,20.206,105.451,19.2,105.458,18.2Z" transform="translate(-31.999 -5.524)"/><path class="a" d="M14.72,25.068c.4-.32,1.2-.968,1.595-1.288.5.515,1,1.031,1.5,1.546-.578.474-1.156.947-1.748,1.407C15.618,26.183,15.173,25.626,14.72,25.068Z" transform="translate(-4.468 -7.218)"/><path class="a" d="M87.591,29.15c.989.007,1.985.007,2.981.014.014.961.035,1.922.056,2.883l-3.058.021C87.577,31.093,87.584,30.125,87.591,29.15Z" transform="translate(-26.579 -8.847)"/><path class="a" d="M13.97,35.387c.495-.495.989-1,1.484-1.5.529.488,1.059.975,1.588,1.456-.376.383-1.121,1.149-1.5,1.532Z" transform="translate(-4.24 -10.286)"/><path class="a" d="M33.05,35.141,34.5,33.72c.4.32,1.2.961,1.595,1.282-.481.543-.968,1.087-1.449,1.623C34.109,36.137,33.579,35.642,33.05,35.141Z" transform="translate(-10.031 -10.234)"/><path class="a" d="M87.588,35.23c1,.007,2,.014,3.009.028,0,1,.007,1.992.014,2.988-1.017,0-2.034.007-3.051.007C87.567,37.243,87.574,36.233,87.588,35.23Z" transform="translate(-26.576 -10.693)"/><path class="a" d="M1.177,39.262a43.083,43.083,0,0,1,4.1-3.072,53.987,53.987,0,0,0,1.783,6.115c1.24.954,2.96.418,4.409.578-.077-1.275-.209-2.542-.348-3.81l1.616-.5c.167,1.783,1.2,4.074-.488,5.44a6.731,6.731,0,0,1-6.791-.7c-1.2.209-2.549,1.024-3.712.223a2.749,2.749,0,0,1-.571-4.269M1.9,41a1.347,1.347,0,0,0,2.11,1c.975-.731.439-2.055.536-3.065A9.252,9.252,0,0,0,1.9,41Z" transform="translate(-0.126 -10.984)"/><path class="a" d="M21.429,43.628c-.933-2.138,1.093-5.105,3.517-4.3,2.02.529,1.894,2.849,2.076,4.506a15.3,15.3,0,0,0,7.877-1.56c-2.027-1.323-4.249-.933-6.456-.522.71-.9,1.247-2.124,2.431-2.473a22.538,22.538,0,0,1,6.707,2.431c-.481.7-.968,1.4-1.456,2.1,3.928-.035,7.856-.021,11.785-.021,0,.557,0,1.114-.007,1.672-3.392-.021-6.791.056-10.19,0a6.5,6.5,0,0,1-3.3-1.059,18.306,18.306,0,0,1-7.271,1.1c-.383,2.876-3.155,3.886-5.725,3.726.188-2.333,3.2-1.644,4.221-3.434-1.449-.467-3.74-.293-4.207-2.166m1.553-2.814c.021.961.042,1.929.049,2.9.592.014,1.769.035,2.354.049C25.4,42.082,24.8,40.772,22.982,40.814Z" transform="translate(-6.434 -11.896)"/><path class="a" d="M85.682,61.224c9.305-.091,18.617-.049,27.922-.334-6.7,1.386-13.547,1.839-20.337,2.591C85.09,63.049,76.934,62.123,68.75,61.6,74.371,60.9,80.04,61.3,85.682,61.224Z" transform="translate(-20.867 -18.481)"/></svg>